<?xml version="1.0" encoding="UTF-8"?>
<svg width="512" height="512" viewBox="0 0 512 512" fill="none" xmlns="http://www.w3.org/2000/svg">
  <circle cx="256" cy="256" r="256" fill="#E5E7EB"/>
  <path d="M256 280C309.019 280 352 237.019 352 184C352 130.981 309.019 88 256 88C202.981 88 160 130.981 160 184C160 237.019 202.981 280 256 280ZM368 312H347.141C318.473 324.95 287.957 332 256 332C224.043 332 193.527 324.95 164.859 312H144C82.144 312 32 362.144 32 424V468C32 490.091 49.909 508 72 508H440C462.091 508 480 490.091 480 468V424C480 362.144 429.856 312 368 312Z" fill="#9CA3AF"/>
</svg>
