<?xml version="1.0" encoding="UTF-8"?>
<svg width="512" height="512" viewBox="0 0 512 512" fill="none" xmlns="http://www.w3.org/2000/svg">
  <!-- Background circle -->
  <circle cx="256" cy="256" r="256" fill="#2563EB"/>
  
  <!-- Heart shape -->
  <path d="M256 384C256 384 144 304 144 224C144 179.817 179.817 144 224 144C242.091 144 258.927 150.382 272 161.267C285.073 150.382 301.909 144 320 144C364.183 144 400 179.817 400 224C400 304 288 384 288 384H256Z" fill="white"/>
  
  <!-- Leaf overlay -->
  <path d="M272 161.267C258.927 150.382 242.091 144 224 144C179.817 144 144 179.817 144 224C144 248 164 280 192 312C220 344 256 384 256 384C256 384 292 344 320 312C348 280 368 248 368 224C368 179.817 332.183 144 288 144C269.909 144 253.073 150.382 240 161.267L256 176L272 161.267Z" fill="#10B981" fill-opacity="0.5"/>
</svg>
